# xmcd
# 
# Track frame offsets:
#     150
#     13548
#     26245
#     93023
#     185765
#     219610
# 
# Disc length: 4041
# 
# Revision: 2
# Processed by: cddbd v1.5.2PL0 Copyright (c) Steve Scherf et al.
# Submitted via: BonkEnc v1.0.15
# 
DISCID=4a0fc706
DTITLE=Keith Jarrett - The Impulse Years - Fort Yawuh Disc Two
DYEAR=1997
DGENRE=
TTITLE0=Whistle Tune
TTITLE1=Spoken Introduction
TTITLE2=Angles (Without Edges)
TTITLE3=Roads Traveled, Roads Veiled
TTITLE4=De Drums (excerpt)
TTITLE5=Melting the Ice
EXTD=
EXTT0=
EXTT1=
EXTT2=
EXTT3=
EXTT4=
EXTT5=
PLAYORDER=
